<?xml version="1.0" standalone="no"?>
<!DOCTYPE svg PUBLIC "-//W3C//DTD SVG 20010904//EN"
 "http://www.w3.org/TR/2001/REC-SVG-20010904/DTD/svg10.dtd">
<svg version="1.0" xmlns="http://www.w3.org/2000/svg"
 width="16.000000pt" height="16.000000pt" viewBox="0 0 16.000000 16.000000"
 preserveAspectRatio="xMidYMid meet">
<metadata>
Created by potrace 1.11, written by Peter Selinger 2001-2013
</metadata>
<g transform="translate(0.000000,16.000000) scale(0.002286,-0.002286)"
fill="#000000" stroke="none">
<path d="M1 6038 c1 -1034 3 -1078 53 -1283 111 -452 401 -850 800 -1102 60
-37 270 -143 285 -143 6 0 11 -4 11 -10 0 -5 -5 -10 -11 -10 -23 0 -227 -105
-308 -158 -296 -195 -514 -445 -661 -758 -69 -147 -120 -316 -156 -521 -4 -21
-9 -492 -11 -1046 l-4 -1008 1003 4 c552 2 1021 7 1043 11 22 4 60 11 85 16
25 5 57 12 71 14 48 8 173 45 254 76 454 174 837 546 1021 990 l22 55 18 -45
c31 -79 113 -229 171 -317 82 -123 249 -309 343 -382 12 -9 33 -26 48 -39 99
-84 337 -216 492 -272 93 -34 247 -74 323 -85 27 -3 59 -9 70 -13 12 -3 475
-7 1030 -9 l1008 -4 -2 968 c-1 1059 -2 1084 -60 1303 -114 431 -376 797 -753
1050 -81 55 -301 170 -323 170 -7 0 -13 5 -13 10 0 6 5 10 11 10 16 0 223 104
285 143 285 180 525 446 669 743 58 119 97 226 129 354 53 211 54 239 55 1283
l2 968 -978 -2 c-874 -1 -990 -3 -1093 -19 -540 -82 -1000 -386 -1286 -850
-45 -73 -134 -251 -134 -269 0 -6 -4 -11 -10 -11 -5 0 -10 5 -10 11 0 20 -103
222 -150 294 -94 144 -147 210 -255 318 -158 157 -374 303 -565 381 -25 10
-59 24 -75 31 -35 16 -238 74 -275 79 -35 5 -89 15 -125 23 -16 4 -483 8
-1038 10 l-1008 4 2 -963z m1947 -142 c92 -48 128 -157 82 -246 -60 -118 -235
-128 -308 -17 -22 33 -27 52 -27 102 0 53 5 68 29 99 41 55 82 76 144 76 29 0
65 -6 80 -14z m3531 -282 c161 161 233 226 242 220 7 -4 66 -60 130 -123 l117
-116 -232 -232 -231 -233 231 -232 232 -233 -128 -127 -127 -127 -232 232
-232 231 -238 -238 -239 -239 -127 128 -128 127 239 239 239 239 -238 236
c-130 131 -237 238 -237 240 0 1 57 59 127 129 l126 126 239 -238 238 -238
229 229z m-2944 -484 l0 -175 -665 -3 -665 -2 2 162 c0 90 1 171 2 181 1 16
38 17 663 15 l662 -3 1 -175z m-595 -438 c37 -14 79 -57 96 -97 34 -82 3 -177
-73 -222 -141 -82 -308 46 -264 203 29 102 139 155 241 116z m3490 -2519 l0
-243 239 0 c182 0 240 -3 243 -12 3 -11 2 -295 -1 -335 -1 -10 -56 -13 -241
-13 l-240 0 -2 -242 -3 -242 -177 0 -178 -1 0 243 0 242 -242 0 -243 0 2 167
c0 93 2 174 2 181 1 9 56 12 241 12 l240 0 0 238 c0 131 2 241 4 243 2 2 83 4
180 4 l176 0 0 -242z m-3019 -255 c1 -7 2 -88 3 -180 l1 -168 -665 0 -665 0 0
180 0 180 663 0 c522 0 662 -3 663 -12z"/>
</g>
</svg>
