<?xml version="1.0" encoding="UTF-8" standalone="no"?>
<svg width="32px" height="32px" viewBox="0 0 32 32" version="1.1" xmlns="http://www.w3.org/2000/svg" xmlns:xlink="http://www.w3.org/1999/xlink">
    <!-- Generator: Sketch 42 (36781) - http://www.bohemiancoding.com/sketch -->
    <title>behance</title>
    <desc>Created with Sketch.</desc>
    <defs></defs>
    <g id="Page-1" stroke="none" stroke-width="1" fill="none" fill-rule="evenodd">
        <g id="Behance">
            <rect id="bounds" fill="#4990E2" opacity="0" x="0" y="0" width="32" height="32"></rect>
            <path d="M19.7065375,11.4477958 L26.7683317,11.4477958 L26.7683317,9.42459397 L19.7065375,9.42459397 L19.7065375,11.4477958 L19.7065375,11.4477958 Z M21.3794803,15.8623357 C20.9294948,16.3201856 20.645706,16.9404486 20.5296818,17.7231245 L26.0220142,17.7231245 C25.9640021,16.8878577 25.6786454,16.2567672 25.1737836,15.8221191 C24.6626502,15.3905646 24.0339247,15.1755607 23.2813356,15.1755607 C22.4660308,15.1755607 21.8294659,15.4044857 21.3794803,15.8623357 L21.3794803,15.8623357 L21.3794803,15.8623357 Z M26.1458778,13.1461717 C26.9972442,13.520495 27.6980927,14.1144625 28.2499914,14.9249807 C28.7532853,15.6395978 29.0762715,16.4686775 29.2236535,17.4106729 C29.3098877,17.9613302 29.3443813,18.7594741 29.3302703,19.7973705 L20.4512871,19.7973705 C20.5045955,21.0023202 20.9247911,21.8484145 21.7275528,22.3325599 C22.2135999,22.6341841 22.7984243,22.7857695 23.4851618,22.7857695 C24.2079609,22.7857695 24.7990569,22.6017015 25.2521783,22.2351121 C25.5014734,22.0355762 25.7209785,21.7602475 25.9091258,21.4075793 L29.1625056,21.4075793 C29.0762715,22.1191029 28.6811622,22.8445476 27.9818815,23.5808198 C26.8906274,24.7486466 25.3619308,25.3333333 23.3973598,25.3333333 C21.7745896,25.3333333 20.3431025,24.841454 19.1060342,23.8546017 C17.8626943,22.8692962 17.2449441,21.2637278 17.2449441,19.0425367 C17.2449441,16.9590101 17.8046822,15.3611756 18.9225906,14.2490333 C20.0436347,13.1399845 21.4939366,12.5815932 23.2797677,12.5815932 C24.3412319,12.5815932 25.2960793,12.7703016 26.1458778,13.1461717 L26.1458778,13.1461717 L26.1458778,13.1461717 Z M5.95140438,17.7664346 L5.95140438,22.1020882 L9.95266961,22.1020882 C10.6676292,22.1020882 11.2257995,22.0061872 11.6224766,21.8159319 C12.3452757,21.4601701 12.7058913,20.7857695 12.7058913,19.7865429 C12.7058913,18.9389018 12.3578188,18.3588554 11.6569703,18.0417633 C11.2649968,17.8654292 10.714666,17.7726218 10.0091138,17.7664346 L5.95140438,17.7664346 L5.95140438,17.7664346 Z M5.95140438,11.4895592 L5.95140438,15.0765661 L9.95894119,15.0765661 C10.6723329,15.0765661 11.2540215,14.9419954 11.7024392,14.6728538 C12.1477211,14.4037123 12.3719299,13.9273009 12.3719299,13.2467131 C12.3719299,12.487239 12.0771658,11.9876257 11.4876377,11.7432328 C10.9765043,11.5746326 10.3273963,11.4895592 9.53874562,11.4895592 L5.95140438,11.4895592 L5.95140438,11.4895592 Z M14.9009428,10.3990719 C15.4042367,11.0904872 15.6566676,11.9164733 15.6566676,12.8801237 C15.6566676,13.8716164 15.4042367,14.671307 14.8946712,15.2745553 C14.6093145,15.6117556 14.1906868,15.9211137 13.6372203,16.199536 C14.4776114,16.5027069 15.1110405,16.9806651 15.5422114,17.6349575 C15.9686785,18.287703 16.18348,19.0827533 16.18348,20.0170147 C16.18348,20.9806651 15.9388885,21.845321 15.4481377,22.6094354 C15.1376947,23.1152359 14.748857,23.54215 14.2816247,23.8886311 C13.7563802,24.2861562 13.1370621,24.5568445 12.4205346,24.7053364 C11.7040071,24.8522815 10.9294675,24.9234339 10.0922122,24.9234339 L2.66666667,24.9234339 L2.66666667,8.66666667 L10.6299998,8.66666667 C12.6400398,8.69605568 14.0621195,9.27300851 14.9009428,10.3990719 L14.9009428,10.3990719 L14.9009428,10.3990719 Z" fill="#1769FF"></path>
        </g>
    </g>
</svg>