<?xml version="1.0" encoding="UTF-8" standalone="no"?>
<svg width="32px" height="32px" viewBox="0 0 32 32" version="1.1" xmlns="http://www.w3.org/2000/svg" xmlns:xlink="http://www.w3.org/1999/xlink">
    <!-- Generator: Sketch 42 (36781) - http://www.bohemiancoding.com/sketch -->
    <title>github</title>
    <desc>Created with Sketch.</desc>
    <defs></defs>
    <g id="Page-1" stroke="none" stroke-width="1" fill="none" fill-rule="evenodd">
        <g id="Github">
            <rect id="bounds" fill="#4990E2" opacity="0" x="0" y="0" width="32" height="32"></rect>
            <path d="M15.9993333,5.33333333 C10.1093333,5.33333333 5.33333333,10.0765937 5.33333333,15.9290208 C5.33333333,20.6093731 8.38933333,24.580521 12.6286667,25.9817131 C13.162,26.0790549 13.3566667,25.7519335 13.3566667,25.4711653 C13.3566667,25.2195335 13.3473333,24.5533713 13.342,23.6693489 C10.3746667,24.3096857 9.74866667,22.2489533 9.74866667,22.2489533 C9.264,21.0252279 8.56466667,20.6994309 8.56466667,20.6994309 C7.596,20.0418771 8.638,20.0551209 8.638,20.0551209 C9.708,20.1299483 10.2713333,21.1470707 10.2713333,21.1470707 C11.2233333,22.766123 12.768,22.2986175 13.376,22.02712 C13.4726667,21.3424165 13.7486667,20.8755732 14.0533333,20.6106975 C11.6846667,20.3431731 9.19466667,19.4346497 9.19466667,15.3747685 C9.19466667,14.2179242 9.61,13.2723182 10.2926667,12.5313286 C10.1826667,12.263142 9.81666667,11.1864226 10.3966667,9.72762005 C10.3966667,9.72762005 11.2926667,9.44287874 13.33,10.8136101 C14.1813333,10.578533 15.0933333,10.4613255 16.0006667,10.4566902 C16.9066667,10.4613255 17.8193333,10.578533 18.6713333,10.8136101 C20.7073333,9.44287874 21.6013333,9.72762005 21.6013333,9.72762005 C22.1833333,11.1864226 21.8173333,12.263142 21.7073333,12.5313286 C22.3913333,13.2723182 22.804,14.2179242 22.804,15.3747685 C22.804,19.4445826 20.31,20.3405244 17.934,20.6027513 C18.3166667,20.9298727 18.658,21.5761692 18.658,22.5648175 C18.658,23.9812399 18.6446667,25.1235161 18.6446667,25.4711653 C18.6446667,25.7545823 18.8366667,26.0843524 19.378,25.9803887 C23.6133333,24.5765479 26.6666667,20.6080488 26.6666667,15.9290208 C26.6666667,10.0765937 21.8906667,5.33333333 15.9993333,5.33333333" fill="#3E75C3"></path>
        </g>
    </g>
</svg>