<?xml version="1.0" encoding="UTF-8" standalone="no"?>
<svg width="32px" height="32px" viewBox="0 0 32 32" version="1.1" xmlns="http://www.w3.org/2000/svg" xmlns:xlink="http://www.w3.org/1999/xlink">
    <!-- Generator: Sketch 42 (36781) - http://www.bohemiancoding.com/sketch -->
    <title>linkedIn</title>
    <desc>Created with Sketch.</desc>
    <defs></defs>
    <g id="Page-1" stroke="none" stroke-width="1" fill="none" fill-rule="evenodd">
        <g id="LinkedIn">
            <rect id="bounds" fill="#4990E2" opacity="0" x="0" y="0" width="32" height="32"></rect>
            <path d="M26.6666667,24.6666667 L21.951709,24.6666667 L21.951709,17.8702269 C21.951709,16.0912681 21.2141737,14.8768223 19.5923487,14.8768223 C18.3518344,14.8768223 17.661963,15.6963565 17.3408592,16.4861796 C17.2204453,16.7696741 17.23926,17.1645856 17.23926,17.5594971 L17.23926,24.6666667 L12.5682032,24.6666667 C12.5682032,24.6666667 12.6284102,12.6274359 12.5682032,11.5330729 L17.23926,11.5330729 L17.23926,13.5942883 C17.5152085,12.6930482 19.0078394,11.4068003 21.3897774,11.4068003 C24.3449357,11.4068003 26.6666667,13.2959382 26.6666667,17.3638983 L26.6666667,24.6666667 L26.6666667,24.6666667 Z M7.84446535,9.8902905 L7.81436187,9.8902905 C6.30918783,9.8902905 5.33333333,8.88629912 5.33333333,7.61366887 C5.33333333,6.31627927 6.338037,5.33333333 7.87331452,5.33333333 C9.40733772,5.33333333 10.3505801,6.31380333 10.3806836,7.60995496 C10.3806836,8.88258522 9.40733772,9.8902905 7.84446535,9.8902905 L7.84446535,9.8902905 L7.84446535,9.8902905 Z M5.87143305,11.5330729 L10.0294763,11.5330729 L10.0294763,24.6666667 L5.87143305,24.6666667 L5.87143305,11.5330729 L5.87143305,11.5330729 Z" fill="#007EBB"></path>
        </g>
    </g>
</svg>