<?xml version="1.0" encoding="UTF-8" standalone="no"?>
<svg width="32px" height="32px" viewBox="0 0 32 32" version="1.1" xmlns="http://www.w3.org/2000/svg" xmlns:xlink="http://www.w3.org/1999/xlink">
    <!-- Generator: Sketch 42 (36781) - http://www.bohemiancoding.com/sketch -->
    <title>twitter</title>
    <desc>Created with Sketch.</desc>
    <defs></defs>
    <g id="Page-1" stroke="none" stroke-width="1" fill="none" fill-rule="evenodd">
        <g id="Twitter">
            <rect id="bounds" fill="#4990E2" opacity="0" x="0" y="0" width="32" height="32"></rect>
            <path d="M24.1535482,10.0738654 C25.0576197,9.53302034 25.7513255,8.67543036 26.0781436,7.65383412 C25.2316722,8.15461659 24.2962963,8.51893584 23.2970593,8.714241 C22.500675,7.86416275 21.3624464,7.33333333 20.1027567,7.33333333 C17.687308,7.33333333 15.7276516,9.29264476 15.7276516,11.7089202 C15.7276516,12.0519562 15.7652169,12.3849765 15.8403475,12.7054773 C12.2027744,12.5226917 8.97841952,10.7824726 6.81841482,8.13208138 C6.44150966,8.78059468 6.22613527,9.53302034 6.22613527,10.3342723 C6.22613527,11.8516432 6.99872826,13.1912363 8.17326994,13.9762128 C7.45702491,13.9549296 6.78084952,13.7558685 6.18982215,13.4303599 L6.18982215,13.4841941 C6.18982215,15.6050078 7.698695,17.3740219 9.70217761,17.7746479 C9.33528986,17.8773083 8.94836728,17.9286385 8.54892293,17.9286385 C8.26718319,17.9286385 7.99170433,17.9023474 7.72499071,17.8510172 C8.28220931,19.5887324 9.89751717,20.8544601 11.8133474,20.8882629 C10.3157442,22.0625978 8.4274618,22.7624413 6.37764865,22.7624413 C6.02453484,22.7624413 5.67517755,22.74241 5.33333333,22.7023474 C7.27045059,23.941784 9.57195124,24.6666667 12.0424957,24.6666667 C20.0939915,24.6666667 24.4953924,18 24.4953924,12.2172144 C24.4953924,12.0269171 24.4916359,11.8366197 24.4841228,11.6500782 C25.3393594,11.0328638 26.0819002,10.2629108 26.6666667,9.38528951 C25.8828041,9.73333333 25.038837,9.9687011 24.1535482,10.0738654 Z" fill="#00AAEC"></path>
        </g>
    </g>
</svg>